inDegrees=no
num_controls=7
num_derivatives=13
num_iterations=81
num_multipliers=7
num_parameters=0
num_slacks=7
num_states=26
objective=0.510121
objective_accelerations=0.002233
objective_balance=0.002477
objective_effort=0.004186
objective_height=0.469317
objective_ligament=0.031908
solver_duration=1202.742479
status=Solve_Succeeded
success=true
DataType=double
version=3
OpenSimVersion=4.5
endheader
time	/jointset/ground_pelvis/pelvis_tilt/value	/jointset/ground_pelvis/pelvis_tx/value	/jointset/ground_pelvis/pelvis_ty/value	/jointset/hip_l/hip_flexion_l/value	/jointset/hip_l/hip_adduction_l/value	/jointset/hip_l/hip_rotation_l/value	/jointset/back/lumbar_extension/value	/jointset/patellofemoral_l/patellar_flexion_l/value	/jointset/knee_l/knee_flexion_l/value	/jointset/knee_l/knee_adduction_l/value	/jointset/knee_l/knee_rotation_l/value	/jointset/ankle_l/ankle_angle_l/value	/jointset/subtalar_l/subtalar_angle_l/value	/jointset/ground_pelvis/pelvis_tilt/speed	/jointset/ground_pelvis/pelvis_tx/speed	/jointset/ground_pelvis/pelvis_ty/speed	/jointset/hip_l/hip_flexion_l/speed	/jointset/hip_l/hip_adduction_l/speed	/jointset/hip_l/hip_rotation_l/speed	/jointset/back/lumbar_extension/speed	/jointset/patellofemoral_l/patellar_flexion_l/speed	/jointset/knee_l/knee_flexion_l/speed	/jointset/knee_l/knee_adduction_l/speed	/jointset/knee_l/knee_rotation_l/speed	/jointset/ankle_l/ankle_angle_l/speed	/jointset/subtalar_l/subtalar_angle_l/speed	/forceset/tau_hip_flexion_l	/forceset/tau_hip_adduction_l	/forceset/tau_hip_rotation_l	/forceset/tau_knee_flexion_l	/forceset/tau_ankle_angle_l	/forceset/tau_subtalar_angle_l	/forceset/tau_lumbar_extension	lambda_cid13_p0	lambda_cid13_p1	lambda_cid13_p2	lambda_cid13_p3	lambda_cid13_p4	lambda_cid13_p5	lambda_cid14_p0	/jointset/ground_pelvis/pelvis_tilt/accel	/jointset/ground_pelvis/pelvis_tx/accel	/jointset/ground_pelvis/pelvis_ty/accel	/jointset/hip_l/hip_flexion_l/accel	/jointset/hip_l/hip_adduction_l/accel	/jointset/hip_l/hip_rotation_l/accel	/jointset/back/lumbar_extension/accel	/jointset/patellofemoral_l/patellar_flexion_l/accel	/jointset/knee_l/knee_flexion_l/accel	/jointset/knee_l/knee_adduction_l/accel	/jointset/knee_l/knee_rotation_l/accel	/jointset/ankle_l/ankle_angle_l/accel	/jointset/subtalar_l/subtalar_angle_l/accel	gamma_cid13_p0	gamma_cid13_p1	gamma_cid13_p2	gamma_cid13_p3	gamma_cid13_p4	gamma_cid13_p5	gamma_cid14_p0
0	-0.0328944911969574	0.06616539064902081	0.8961145756509038	0.1955287580552426	-0.3210859755697181	-0.4443716859459833	-0.1379045077516729	0.0701528807909455	0.07015288079084844	-0.1683221797174484	-0.08066516806124481	-0.06701059314715049	0.004384024289566715	0	0	0	0	0	0	0	0	0	0	0	0	0	0.06850213575023123	-0.04516658274436423	-0.02446474491248285	-0.2454550405060398	0.2668372054152935	-0.04039510706196735	-0.005743855452239401	48.23392141463516	8.016281739770582	-0.3781383004951728	-34.91769923105802	-547.8778814857377	-48.02042477743428	-38.96568271471381	-0.6157038600622946	0.5023250999551035	-0.01096703900212091	-0.01015120911329898	-0.06380817306292866	-0.05457165879603387	-0.3116215388408454	-0.008149545959383411	-0.00814954595938926	-0.1255736404628219	0.02740612858978939	0.5737550021588612	0.2454192673144099	3.709514189110258e-09	1.144302400121281e-08	-5.219294586145425e-09	1.757301539967814e-09	2.497551634262891e-08	1.855458295818145e-08	9.443458372255784e-10
0.01	-0.03292003657437666	0.06618631719509459	0.8961141272021388	0.1955286610910856	-0.3210884254072194	-0.4443738162271143	-0.1379163658351171	0.07015311557254256	0.07015311557379883	-0.1683266728890283	-0.08066406451997442	-0.06698631832935308	0.004394676356767119	-0.004586719526604834	0.003766586908166399	-7.998342762574757e-05	2.658013901544577e-05	-0.0004157977312611799	-0.0003725379613988	-0.001998162049206622	0.0001178804247421687	0.0001178804247030719	-0.0007174063998050999	0.0001857430427284973	0.004416975475763288	0.001970542082102499	0.04266928855446427	-0.02673730974059316	-0.01749519995518436	-0.1932754400476261	0.1907236060701206	-0.03140986241391094	0.01294886553328182	24.06429014074638	7.224038483083271	1.02962236278241	-16.76936188548233	-547.1774033609807	-52.09927555947299	-38.96561465051552	-0.3018026876421243	0.2510174899529248	-0.005053050792701843	0.01595881236822401	-0.01933976578664258	-0.020566094998474	-0.08789534273463971	0.03239526223467613	0.03239526223220087	-0.01763972444430459	0.008912487779802086	0.3099710906047124	0.148889713360634	1.785595067069201e-09	5.433329082712084e-09	-2.558346154150251e-09	7.916743896549498e-10	1.202203116586143e-08	8.831670331328506e-09	4.544713934734154e-10
0.02	-0.03297577848462831	0.06623234801099945	0.8961131711078599	0.1955302091653143	-0.3210928080603743	-0.444378066133623	-0.1379370018999095	0.07015665684365716	0.07015665684362073	-0.16833290323872	-0.08066215272766086	-0.06693101330258633	0.004420237451726151	-0.006039306598900347	0.005020853966216858	-0.0001015291027990638	0.0003290077577326718	-0.0003865631670448399	-0.0004239251303182932	-0.001755596289335204	0.0006612978710890754	0.0006612978710108966	-0.0003474361882183259	0.0001616499120195529	0.00620604176420516	0.002981805552153892	0.01683644134846011	-0.008308036739172964	-0.01052565500804916	-0.1410958395972537	0.1146100067201807	-0.02242461777088151	0.0316415865161614	-0.1046204151854681	6.431647451753929	2.437431279805856	1.362463696724385	-546.4755003096025	-56.17778212950154	-38.9656005545334	0.01112263080017227	-0.0001388700686974261	0.0007205114883309175	0.04501828682727242	0.02519828603235273	0.0096584996994867	0.1365240229750405	0.07695785836193109	0.07695785836192967	0.09190168181515816	-0.01456110609826807	0.04817316469394862	0.05356354490360524	-1.383240549718556e-10	-5.763658357886397e-10	1.026022778449226e-10	-1.739527606579139e-10	-9.314540109060448e-10	-8.912422955244341e-10	-3.54030502787475e-11
0.03	-0.03303692462355496	0.0662835330235782	0.8961121609640694	0.1955356472752973	-0.3210956419897236	-0.4443819464056514	-0.1379488339106474	0.07016684717247575	0.07016684717201965	-0.1683323748574546	-0.08066115037800285	-0.0668655906946444	0.00445300972816629	-0.006324567684552878	0.005314617052884857	-0.0001042271112549159	0.0007536305881323044	-0.0002054960848110184	-0.0003663985199163941	-0.0007164960211039009	0.001354216974858033	0.001354216974827393	0.0003903490734425516	4.667639052686921e-05	0.006975313402527628	0.003598439713876962	0.02329962438651096	-0.007775984449751843	-0.01230289618823224	-0.1540064434936425	0.1359177023010861	-0.02937511258454052	0.02693668011842781	6.492574912234682	8.435042280356839	1.958217583271054	-3.079748977142105	-546.6212029532592	-51.04650214144633	-38.96578379093081	-0.06854745521888575	0.05890413302287744	-0.001324314046593718	0.04043671414352609	0.01076989352289351	0.001659322502061085	0.07174950595394471	0.06207630798826221	0.06207630799412629	0.05530243024394557	-0.008786981918120378	0.1058291690290614	0.06958194264135265	-2.569017559654548e-10	-8.352564863483519e-10	3.415031904082279e-10	-1.442956084412303e-10	-1.33122874902824e-09	-1.325873595678518e-09	-7.597562355787986e-11
0.04	-0.03310496276879973	0.06634060971401617	0.8961110119687786	0.1955451821002905	-0.3210974234534001	-0.444385679495465	-0.1379534456233262	0.07018329016670767	0.07018329016666719	-0.1683263515282468	-0.08066106206499263	-0.06678957036924747	0.004492722064389699	-0.007417707849451192	0.006199189538058065	-0.0001292994028800524	0.00114835073790421	-0.0001760700347038136	-0.0003944886778345236	-0.000311536664564929	0.001911830942870617	0.001911830942887522	0.0007515536114405765	-2.11574007567698e-05	0.008325585265984221	0.004369817509065051	0.0297628074279183	-0.007243932159158311	-0.01408013736685628	-0.1669170473869176	0.1572253978838042	-0.03632560739596179	0.02223177372118328	13.09030378913071	10.43895919835151	1.478217592294838	-7.526203294064552	-546.7595074181394	-45.91225597647942	-38.96607820664583	-0.1504531850483259	0.1180230096316875	-0.003754345145545725	0.03903775070204911	-0.005129920393025994	-0.007464853964620249	0.009695840636818073	0.04989683121102004	0.04989683121102108	0.01658553708259605	-0.005133160056789728	0.1643732097201491	0.08451227159621284	-3.382559225044675e-10	-9.755738530329904e-10	5.304649788595351e-10	-9.411713039919533e-11	-1.4721640966629e-09	-1.568993940642931e-09	-1.072842407447848e-10
0.05	-0.0331870600310203	0.06640893056297714	0.8961095422462826	0.1955583928279278	-0.3210994290411229	-0.4443900357500378	-0.1379562959464957	0.07020471291740167	0.07020471291747607	-0.1683180511868213	-0.0806614295551733	-0.06669767596263924	0.004540888964550406	-0.00904414626643245	0.007507935179196263	-0.000163970474537919	0.001476111627168508	-0.000224866596731313	-0.0004827560061900742	-0.0002776720257870549	0.002358339669174985	0.002358339669174853	0.0009038285011738634	-4.600151405139587e-05	0.01009734400014712	0.005287979188966145	0.03192989856930064	-0.009370068277096853	-0.01467509454792903	-0.1714309446160248	0.1635833033146069	-0.03656754924359485	0.02069050505759189	15.12891517962441	10.30188349955392	1.368947660791034	-9.190201930006644	-546.8638348947803	-46.01177741540793	-38.96646048669593	-0.1750994150542672	0.1437435597771149	-0.003222590495374523	0.0269927614662482	-0.004727433387946655	-0.01040684019397435	-0.002639834794624219	0.03987097844354628	0.03987097844023165	0.0138455235639944	-0.0002090757141099304	0.1901843443948863	0.09913071273054655	-2.228893964973676e-10	-6.365145072610556e-10	3.425151196651604e-10	-8.154694833105311e-11	-1.112531511596128e-09	-1.065679885792491e-09	-6.566000799219633e-11
0.06	-0.03328669372640695	0.06649162751203258	0.8961077459925993	0.1955743506657043	-0.3211019171762162	-0.4443954545116076	-0.1379593819451741	0.07023016937295727	0.07023016937291932	-0.1683083686848499	-0.08066185529312986	-0.06658674254085142	0.004598970000816338	-0.01092499448456458	0.009074409556950659	-0.000194605640284454	0.001697772653517941	-0.000272579529812247	-0.0006069900514142149	-0.0003586717986900482	0.002718571799651086	0.002718571799633895	0.001027985736703997	-3.280717736312022e-05	0.01213338829951949	0.006352644730590149	0.0340969897167227	-0.01149620439569836	-0.01527005173348829	-0.17594484184218	0.1699412087460017	-0.03680949109156846	0.01914923639897252	17.1681258885102	10.16508666756647	1.25919487645818	-10.86366739382415	-546.9635241069154	-46.10964759358936	-38.96691375950241	-0.2013351452778258	0.1695687569542426	-0.002947163963298077	0.01781777811944754	-0.004913194603734394	-0.01465819733845324	-0.01327704169912005	0.03264151204574801	0.03264151204574625	0.01096200624205459	0.002474529939437656	0.2172303227613985	0.1138130439404248	-9.923989396201045e-11	-2.772708788593704e-10	1.386952963593887e-10	-7.056027346181167e-11	-7.318223819945582e-10	-5.309370141077406e-10	-2.096491840005024e-11
0.07000000000000001	-0.03340622656636683	0.06659099813857568	0.8961056468656187	0.1955921875330772	-0.3211049285667186	-0.4444023008170813	-0.1379638154973068	0.0702588912335704	0.07025889123328789	-0.1682976699425389	-0.08066204760208379	-0.06645443735398861	0.00466820505037462	-0.01300507116326787	0.01081476312689134	-0.0002260987633268796	0.001869941231794265	-0.0003343384589984726	-0.0007682891048257621	-0.0005444493363106646	0.003019944017621816	0.003019944017617566	0.001098971135847842	-7.337336499985429e-06	0.01434046710712921	0.007496498657470953	0.03507465670453021	-0.01218228720776126	-0.01552605407510699	-0.1778730189380928	0.1726924548935505	-0.03713162282298714	0.01843212133919775	18.04322994835366	10.1950558318373	1.204967398932657	-11.55641027796687	-546.9835073882182	-45.96632114016161	-38.9674116250884	-0.2148685785843576	0.178525747263492	-0.003382379372276111	0.0169674465505637	-0.007503243777330902	-0.01776848993488914	-0.02368971505655459	0.02800663336238386	0.02800663336319899	0.003248081248586709	0.002330822370810874	0.2243693529136413	0.1149916146632478	-1.020386277537936e-10	-3.813672192164273e-10	2.001246474206182e-10	-8.398480823294742e-11	-6.582844134108405e-10	-6.488014790904092e-10	-2.911434224231756e-11
0.08	-0.03354726510302241	0.06670822371886378	0.8961032064088222	0.1956117562961315	-0.321108696746823	-0.4444109406592732	-0.1379705991458972	0.0702904511278542	0.07029045112782854	-0.1682866450920555	-0.08066203569024952	-0.06629967684046274	0.004748942648719017	-0.01522613381901645	0.01264540030595464	-0.0002628716034521134	0.002044151764421926	-0.000423937456420542	-0.0009656973819009936	-0.0008286910844205685	0.003286178503259568	0.003286178503268259	0.001093207515080285	8.036952749442276e-06	0.01662445364088079	0.008653154488456737	0.03605232369508437	-0.01286837001912181	-0.01578205641673499	-0.179801196031449	0.1754437010424342	-0.03745375455292432	0.01771500628009797	18.91892991210711	10.22533783082708	1.150213534973616	-12.26039551471187	-546.9998118946031	-45.82158957616404	-38.96795710767905	-0.229532340686183	0.1876254787780273	-0.004003107379879222	0.01822616899014257	-0.01048120825091163	-0.02188004207134529	-0.03296988379675433	0.02561396557955891	0.02561396557955813	-0.004387797740094247	0.0004554196162848959	0.2326118679890781	0.1163734247610412	-1.129953122763601e-10	-5.153564607837258e-10	2.78666848441009e-10	-9.898425975507527e-11	-6.045639390863392e-10	-8.087696432129113e-10	-4.06730895319664e-11
